<mxfile host="app.diagrams.net" modified="2020-08-01T07:02:36.978Z" agent="5.0 (Macintosh; Intel Mac OS X 10_13_6) AppleWebKit/537.36 (KHTML, like Gecko) Chrome/80.0.3987.122 Safari/537.36" etag="jC6PvbKDujFj99pOm7hh" version="13.5.3" type="github">
  <diagram id="v1e2pg8IzNtGAzsSoaOG" name="Page-1">
    <mxGraphModel dx="1275" dy="1002" grid="1" gridSize="10" guides="1" tooltips="1" connect="1" arrows="1" fold="1" page="1" pageScale="1" pageWidth="1169" pageHeight="827" math="0" shadow="0">
      <root>
        <mxCell id="0" />
        <mxCell id="1" parent="0" />
        <mxCell id="oPf_UwXsWGQcEeh8l3xa-1" value="AWS Cloud" style="outlineConnect=0;gradientColor=none;html=1;whiteSpace=wrap;fontSize=12;fontStyle=0;shape=mxgraph.aws4.group;grIcon=mxgraph.aws4.group_aws_cloud;strokeColor=#858B94;fillColor=none;verticalAlign=top;align=left;spacingLeft=30;fontColor=#858B94;dashed=0;" parent="1" vertex="1">
          <mxGeometry x="235" y="157" width="825" height="600" as="geometry" />
        </mxCell>
        <mxCell id="oPf_UwXsWGQcEeh8l3xa-19" style="edgeStyle=orthogonalEdgeStyle;rounded=0;orthogonalLoop=1;jettySize=auto;html=1;startArrow=classic;startFill=1;" parent="1" source="oPf_UwXsWGQcEeh8l3xa-2" target="oPf_UwXsWGQcEeh8l3xa-16" edge="1">
          <mxGeometry relative="1" as="geometry" />
        </mxCell>
        <mxCell id="oPf_UwXsWGQcEeh8l3xa-21" value="Calls requiring agent&lt;br&gt;gets routed" style="edgeLabel;html=1;align=center;verticalAlign=middle;resizable=0;points=[];" parent="oPf_UwXsWGQcEeh8l3xa-19" vertex="1" connectable="0">
          <mxGeometry x="0.0514" relative="1" as="geometry">
            <mxPoint as="offset" />
          </mxGeometry>
        </mxCell>
        <mxCell id="oPf_UwXsWGQcEeh8l3xa-20" style="edgeStyle=orthogonalEdgeStyle;rounded=0;orthogonalLoop=1;jettySize=auto;html=1;startArrow=classic;startFill=1;" parent="1" source="oPf_UwXsWGQcEeh8l3xa-2" target="oPf_UwXsWGQcEeh8l3xa-15" edge="1">
          <mxGeometry relative="1" as="geometry" />
        </mxCell>
        <mxCell id="oPf_UwXsWGQcEeh8l3xa-22" value="Calls are recorded&amp;nbsp;&lt;br&gt;into S3" style="edgeLabel;html=1;align=center;verticalAlign=middle;resizable=0;points=[];" parent="oPf_UwXsWGQcEeh8l3xa-20" vertex="1" connectable="0">
          <mxGeometry x="0.1149" y="1" relative="1" as="geometry">
            <mxPoint as="offset" />
          </mxGeometry>
        </mxCell>
        <mxCell id="oPf_UwXsWGQcEeh8l3xa-24" style="edgeStyle=orthogonalEdgeStyle;rounded=0;orthogonalLoop=1;jettySize=auto;html=1;startArrow=classic;startFill=1;" parent="1" source="oPf_UwXsWGQcEeh8l3xa-2" target="oPf_UwXsWGQcEeh8l3xa-8" edge="1">
          <mxGeometry relative="1" as="geometry" />
        </mxCell>
        <mxCell id="oPf_UwXsWGQcEeh8l3xa-30" value="Invokes Lex &lt;br&gt;chatbot" style="edgeLabel;html=1;align=center;verticalAlign=middle;resizable=0;points=[];" parent="oPf_UwXsWGQcEeh8l3xa-24" vertex="1" connectable="0">
          <mxGeometry x="0.2791" y="-1" relative="1" as="geometry">
            <mxPoint as="offset" />
          </mxGeometry>
        </mxCell>
        <mxCell id="oPf_UwXsWGQcEeh8l3xa-2" value="Amazon&lt;br&gt;Connect" style="outlineConnect=0;fontColor=#232F3E;gradientColor=#4D72F3;gradientDirection=north;fillColor=#3334B9;strokeColor=#ffffff;dashed=0;verticalLabelPosition=bottom;verticalAlign=top;align=center;html=1;fontSize=12;fontStyle=0;aspect=fixed;shape=mxgraph.aws4.resourceIcon;resIcon=mxgraph.aws4.connect;" parent="1" vertex="1">
          <mxGeometry x="320" y="379" width="78" height="78" as="geometry" />
        </mxCell>
        <mxCell id="oPf_UwXsWGQcEeh8l3xa-4" value="" style="edgeStyle=orthogonalEdgeStyle;rounded=0;orthogonalLoop=1;jettySize=auto;html=1;startArrow=classic;startFill=1;" parent="1" target="oPf_UwXsWGQcEeh8l3xa-2" edge="1">
          <mxGeometry relative="1" as="geometry">
            <mxPoint x="200" y="418" as="sourcePoint" />
            <Array as="points">
              <mxPoint x="200" y="418" />
            </Array>
          </mxGeometry>
        </mxCell>
        <mxCell id="oPf_UwXsWGQcEeh8l3xa-7" value="" style="edgeStyle=orthogonalEdgeStyle;rounded=0;orthogonalLoop=1;jettySize=auto;html=1;entryX=-0.038;entryY=0.547;entryDx=0;entryDy=0;entryPerimeter=0;startArrow=classic;startFill=1;" parent="1" target="oPf_UwXsWGQcEeh8l3xa-6" edge="1">
          <mxGeometry relative="1" as="geometry">
            <mxPoint x="120" y="417" as="sourcePoint" />
            <mxPoint x="150" y="417" as="targetPoint" />
            <Array as="points">
              <mxPoint x="140" y="417" />
            </Array>
          </mxGeometry>
        </mxCell>
        <mxCell id="oPf_UwXsWGQcEeh8l3xa-3" value="User" style="outlineConnect=0;fontColor=#232F3E;gradientColor=none;strokeColor=#232F3E;fillColor=#ffffff;dashed=0;verticalLabelPosition=bottom;verticalAlign=top;align=center;html=1;fontSize=12;fontStyle=0;aspect=fixed;shape=mxgraph.aws4.resourceIcon;resIcon=mxgraph.aws4.user;" parent="1" vertex="1">
          <mxGeometry x="60" y="380" width="60" height="60" as="geometry" />
        </mxCell>
        <mxCell id="oPf_UwXsWGQcEeh8l3xa-6" value="Phone" style="verticalLabelPosition=bottom;html=1;verticalAlign=top;align=center;strokeColor=none;fillColor=#00BEF2;shape=mxgraph.azure.mobile;pointerEvents=1;" parent="1" vertex="1">
          <mxGeometry x="160" y="390" width="35" height="50" as="geometry" />
        </mxCell>
        <mxCell id="kgRh4x4kqIAzJzRk-_Ba-1" style="edgeStyle=orthogonalEdgeStyle;rounded=0;orthogonalLoop=1;jettySize=auto;html=1;" parent="1" source="oPf_UwXsWGQcEeh8l3xa-8" target="oPf_UwXsWGQcEeh8l3xa-14" edge="1">
          <mxGeometry relative="1" as="geometry" />
        </mxCell>
        <mxCell id="oPf_UwXsWGQcEeh8l3xa-8" value="Amazon Lex" style="outlineConnect=0;fontColor=#232F3E;gradientColor=#4AB29A;gradientDirection=north;fillColor=#116D5B;strokeColor=#ffffff;dashed=0;verticalLabelPosition=bottom;verticalAlign=top;align=center;html=1;fontSize=12;fontStyle=0;aspect=fixed;shape=mxgraph.aws4.resourceIcon;resIcon=mxgraph.aws4.lex;" parent="1" vertex="1">
          <mxGeometry x="560" y="379" width="78" height="78" as="geometry" />
        </mxCell>
        <mxCell id="oPf_UwXsWGQcEeh8l3xa-10" value="Amazon Dynamo&amp;nbsp;&lt;br&gt;DB" style="outlineConnect=0;fontColor=#232F3E;gradientColor=#4D72F3;gradientDirection=north;fillColor=#3334B9;strokeColor=#ffffff;dashed=0;verticalLabelPosition=bottom;verticalAlign=top;align=center;html=1;fontSize=12;fontStyle=0;aspect=fixed;shape=mxgraph.aws4.resourceIcon;resIcon=mxgraph.aws4.dynamodb;" parent="1" vertex="1">
          <mxGeometry x="940" y="379" width="78" height="78" as="geometry" />
        </mxCell>
        <mxCell id="oPf_UwXsWGQcEeh8l3xa-26" style="edgeStyle=orthogonalEdgeStyle;rounded=0;orthogonalLoop=1;jettySize=auto;html=1;startArrow=classic;startFill=1;" parent="1" source="oPf_UwXsWGQcEeh8l3xa-14" target="oPf_UwXsWGQcEeh8l3xa-10" edge="1">
          <mxGeometry relative="1" as="geometry" />
        </mxCell>
        <mxCell id="oPf_UwXsWGQcEeh8l3xa-14" value="Lambda" style="outlineConnect=0;fontColor=#232F3E;gradientColor=#F78E04;gradientDirection=north;fillColor=#D05C17;strokeColor=#ffffff;dashed=0;verticalLabelPosition=bottom;verticalAlign=top;align=center;html=1;fontSize=12;fontStyle=0;aspect=fixed;shape=mxgraph.aws4.resourceIcon;resIcon=mxgraph.aws4.lambda;" parent="1" vertex="1">
          <mxGeometry x="760" y="379" width="78" height="78" as="geometry" />
        </mxCell>
        <mxCell id="oPf_UwXsWGQcEeh8l3xa-15" value="Amazon S3" style="outlineConnect=0;fontColor=#232F3E;gradientColor=#60A337;gradientDirection=north;fillColor=#277116;strokeColor=#ffffff;dashed=0;verticalLabelPosition=bottom;verticalAlign=top;align=center;html=1;fontSize=12;fontStyle=0;aspect=fixed;shape=mxgraph.aws4.resourceIcon;resIcon=mxgraph.aws4.s3;" parent="1" vertex="1">
          <mxGeometry x="320" y="591" width="78" height="78" as="geometry" />
        </mxCell>
        <mxCell id="oPf_UwXsWGQcEeh8l3xa-16" value="Agent" style="pointerEvents=1;shadow=0;dashed=0;html=1;strokeColor=none;fillColor=#505050;labelPosition=center;verticalLabelPosition=bottom;verticalAlign=top;outlineConnect=0;align=center;shape=mxgraph.office.users.call_center_agent;" parent="1" vertex="1">
          <mxGeometry x="336" y="71" width="46" height="55" as="geometry" />
        </mxCell>
        <mxCell id="Gx2xFuwnagJ-mLQaUhFi-2" style="rounded=0;orthogonalLoop=1;jettySize=auto;html=1;startArrow=classic;startFill=1;edgeStyle=orthogonalEdgeStyle;" edge="1" parent="1" source="Gx2xFuwnagJ-mLQaUhFi-1" target="oPf_UwXsWGQcEeh8l3xa-2">
          <mxGeometry relative="1" as="geometry">
            <mxPoint x="360" y="370" as="targetPoint" />
          </mxGeometry>
        </mxCell>
        <mxCell id="Gx2xFuwnagJ-mLQaUhFi-3" style="edgeStyle=orthogonalEdgeStyle;rounded=0;orthogonalLoop=1;jettySize=auto;html=1;startArrow=classic;startFill=1;" edge="1" parent="1" source="Gx2xFuwnagJ-mLQaUhFi-4" target="oPf_UwXsWGQcEeh8l3xa-10">
          <mxGeometry relative="1" as="geometry" />
        </mxCell>
        <mxCell id="Gx2xFuwnagJ-mLQaUhFi-5" style="edgeStyle=orthogonalEdgeStyle;rounded=0;orthogonalLoop=1;jettySize=auto;html=1;startArrow=classic;startFill=1;" edge="1" parent="1" source="Gx2xFuwnagJ-mLQaUhFi-1" target="Gx2xFuwnagJ-mLQaUhFi-4">
          <mxGeometry relative="1" as="geometry" />
        </mxCell>
        <mxCell id="Gx2xFuwnagJ-mLQaUhFi-1" value="Lambda" style="outlineConnect=0;fontColor=#232F3E;gradientColor=#F78E04;gradientDirection=north;fillColor=#D05C17;strokeColor=#ffffff;dashed=0;verticalLabelPosition=bottom;verticalAlign=top;align=center;html=1;fontSize=12;fontStyle=0;aspect=fixed;shape=mxgraph.aws4.resourceIcon;resIcon=mxgraph.aws4.lambda;" vertex="1" parent="1">
          <mxGeometry x="560" y="210" width="78" height="78" as="geometry" />
        </mxCell>
        <mxCell id="Gx2xFuwnagJ-mLQaUhFi-4" value="SQS&lt;br&gt;" style="outlineConnect=0;fontColor=#232F3E;gradientColor=#F34482;gradientDirection=north;fillColor=#BC1356;strokeColor=#ffffff;dashed=0;verticalLabelPosition=bottom;verticalAlign=top;align=center;html=1;fontSize=12;fontStyle=0;aspect=fixed;shape=mxgraph.aws4.resourceIcon;resIcon=mxgraph.aws4.sqs;" vertex="1" parent="1">
          <mxGeometry x="780" y="210" width="78" height="78" as="geometry" />
        </mxCell>
      </root>
    </mxGraphModel>
  </diagram>
</mxfile>
